#N canvas 0 61 1920 994 12;
#X obj 240 640 dac~ 1 2;
#X obj 172 40 adc~ 1;
#N canvas 406 249 1349 505 filterbank 1;
#X obj 100 20 inlet~;
#X obj 170 120 bp~ 63 10;
#X text 300 0 /! CHANGE QUALITY FACTORS;
#X obj 70 120 bp~ 31.5 10;
#X obj 250 120 bp~ 125 10;
#X obj 340 120 bp~ 250 10;
#X obj 429 120 bp~ 500 10;
#X obj 518 120 bp~ 1000 10;
#X obj 611 120 bp~ 2000 10;
#X obj 705 120 bp~ 4000 10;
#X obj 802 120 bp~ 8000 10;
#X obj 900 120 bp~ 16000 10;
#X obj 290 240 delwrite~ \$0-buffer;
#X connect 0 0 3 0;
#X connect 0 0 1 0;
#X connect 0 0 4 0;
#X connect 0 0 5 0;
#X connect 0 0 6 0;
#X connect 0 0 7 0;
#X connect 0 0 8 0;
#X connect 0 0 9 0;
#X connect 0 0 10 0;
#X connect 0 0 11 0;
#X connect 1 0 12 0;
#X connect 3 0 12 0;
#X connect 4 0 12 0;
#X connect 5 0 12 0;
#X connect 6 0 12 0;
#X connect 7 0 12 0;
#X connect 8 0 12 0;
#X connect 9 0 12 0;
#X connect 10 0 12 0;
#X connect 11 0 12 0;
#X restore 170 80 pd filterbank;
#N canvas 0 61 1920 994 delay-lines 0;
#X obj 620 429 outlet~;
#X obj 90 319 vd~ \$0-buffer;
#X obj 90 259 r \$0-b1-del;
#X obj 90 288 sig~;
#X obj 200 320 vd~ \$0-buffer;
#X obj 200 289 sig~;
#X obj 302 320 vd~ \$0-buffer;
#X obj 412 320 vd~ \$0-buffer;
#X obj 412 289 sig~;
#X obj 510 320 vd~ \$0-buffer;
#X obj 510 289 sig~;
#X obj 620 320 vd~ \$0-buffer;
#X obj 620 289 sig~;
#X obj 722 320 vd~ \$0-buffer;
#X obj 832 320 vd~ \$0-buffer;
#X obj 832 289 sig~;
#X obj 302 289 sig~;
#X obj 722 289 sig~;
#X obj 944 319 vd~ \$0-buffer;
#X obj 1054 319 vd~ \$0-buffer;
#X obj 1054 288 sig~;
#X obj 944 288 sig~;
#X obj 200 260 r \$0-b2-del;
#X obj 302 260 r \$0-b3-del;
#X obj 412 260 r \$0-b4-del;
#X obj 510 260 r \$0-b5-del;
#X obj 620 260 r \$0-b6-del;
#X obj 722 260 r \$0-b7-del;
#X obj 832 260 r \$0-b8-del;
#X obj 944 259 r \$0-b9-del;
#X obj 1054 259 r \$0-b10-del;
#X obj 960 -10 vsl 15 128 10 1000 1 0 empty empty empty 0 -9 0 10 #fcfcfc
#000000 #000000 0 1;
#X obj 960 210 s \$0-b1-del;
#X obj 988 -10 vsl 15 128 10 1000 1 0 empty empty empty 0 -9 0 10 #fcfcfc
#000000 #000000 0 1;
#X obj 988 185 s \$0-b2-del;
#X obj 1019 -10 vsl 15 128 10 1000 1 0 empty empty empty 0 -9 0 10
#fcfcfc #000000 #000000 0 1;
#X obj 1047 -10 vsl 15 128 10 1000 1 0 empty empty empty 0 -9 0 10
#fcfcfc #000000 #000000 0 1;
#X obj 1019 162 s \$0-b3-del;
#X obj 1047 211 s \$0-b4-del;
#X obj 1077 -10 vsl 15 128 10 1000 1 0 empty empty empty 0 -9 0 10
#fcfcfc #000000 #000000 0 1;
#X obj 1105 -10 vsl 15 128 10 1000 1 0 empty empty empty 0 -9 0 10
#fcfcfc #000000 #000000 0 1;
#X obj 1133 -10 vsl 15 128 10 1000 1 0 empty empty empty 0 -9 0 10
#fcfcfc #000000 #000000 0 1;
#X obj 1161 -10 vsl 15 128 10 1000 1 0 empty empty empty 0 -9 0 10
#fcfcfc #000000 #000000 0 1;
#X obj 1077 185 s \$0-b5-del;
#X obj 1161 185 s \$0-b8-del;
#X obj 1133 211 s \$0-b7-del;
#X obj 1105 162 s \$0-b6-del;
#X obj 1189 -9 vsl 15 128 10 1000 1 0 empty empty empty 0 -9 0 10 #fcfcfc
#000000 #000000 0 1;
#X obj 1217 -9 vsl 15 128 10 1000 1 0 empty empty empty 0 -9 0 10 #fcfcfc
#000000 #000000 0 1;
#X obj 1189 163 s \$0-b9-del;
#X obj 1217 212 s \$0-b10-del;
#X obj 1289 10 bng 19 250 50 0 empty empty empty 17 7 0 10 #fcfcfc
#000000 #000000;
#X text 1310 10 preset 1;
#X obj 1289 -100 loadbang;
#X msg 1370 80 \; \$0-b1-del 50 \; \$0-b2-del 100 \; \$0-b3-del 150
\; \$0-b4-del 200 \; \$0-b5-del 250 \; \$0-b6-del 300 \; \$0-b7-del
350 \; \$0-b8-del 400 \; \$0-b9-del 450 \; \$0-b10-del 500;
#X text 959 -31 b1;
#X text 986 -31 b2;
#X text 1017 -30 b3;
#X text 1044 -30 b4;
#X text 1075 -30 b5;
#X text 1100 -30 b6;
#X text 1127 -30 b7;
#X text 1158 -29 b8;
#X text 1185 -29 b9;
#X text 1216 -29 b10;
#X connect 1 0 0 0;
#X connect 2 0 3 0;
#X connect 3 0 1 0;
#X connect 4 0 0 0;
#X connect 5 0 4 0;
#X connect 6 0 0 0;
#X connect 7 0 0 0;
#X connect 8 0 7 0;
#X connect 9 0 0 0;
#X connect 10 0 9 0;
#X connect 11 0 0 0;
#X connect 12 0 11 0;
#X connect 13 0 0 0;
#X connect 14 0 0 0;
#X connect 15 0 14 0;
#X connect 16 0 6 0;
#X connect 17 0 13 0;
#X connect 18 0 0 0;
#X connect 19 0 0 0;
#X connect 20 0 19 0;
#X connect 21 0 18 0;
#X connect 22 0 5 0;
#X connect 23 0 16 0;
#X connect 24 0 8 0;
#X connect 25 0 10 0;
#X connect 26 0 12 0;
#X connect 27 0 17 0;
#X connect 28 0 15 0;
#X connect 29 0 21 0;
#X connect 30 0 20 0;
#X connect 31 0 32 0;
#X connect 33 0 34 0;
#X connect 35 0 37 0;
#X connect 36 0 38 0;
#X connect 39 0 43 0;
#X connect 40 0 46 0;
#X connect 41 0 45 0;
#X connect 42 0 44 0;
#X connect 47 0 49 0;
#X connect 48 0 50 0;
#X connect 51 0 54 0;
#X connect 53 0 51 0;
#X coords 0 -1 1 1 464 190 1 922 -50;
#X restore 240 410 pd delay-lines;
#X connect 1 0 2 0;
#X connect 3 0 0 0;
