#N canvas 6 59 1908 965 12;
#X obj 217 661 dac~ 1 2;
#X obj 172 40 adc~ 1;
#N canvas 0 26 1920 1028 filterbank 0;
#X obj 100 20 inlet~;
#X obj 170 120 bp~ 63 10;
#X text 300 0 /! CHANGE QUALITY FACTORS;
#X obj 70 120 bp~ 31.5 10;
#X obj 250 120 bp~ 125 10;
#X obj 340 120 bp~ 250 10;
#X obj 429 120 bp~ 500 10;
#X obj 518 120 bp~ 1000 10;
#X obj 611 120 bp~ 2000 10;
#X obj 705 120 bp~ 4000 10;
#X obj 802 120 bp~ 8000 10;
#X obj 900 120 bp~ 16000 10;
#X obj 70 156 delwrite~ \$0-buffer-b1;
#X obj 170 190 delwrite~ \$0-buffer-b2;
#X obj 250 161 delwrite~ \$0-buffer-b3;
#X obj 340 195 delwrite~ \$0-buffer-b4;
#X obj 429 161 delwrite~ \$0-buffer-b5;
#X obj 518 196 delwrite~ \$0-buffer-b6;
#X obj 611 161 delwrite~ \$0-buffer-b7;
#X obj 705 196 delwrite~ \$0-buffer-b8;
#X obj 802 163 delwrite~ \$0-buffer-b9;
#X obj 900 195 delwrite~ \$0-buffer-b10;
#X obj 229 300 bng 15 250 50 0 empty empty empty 17 7 0 10 #fcfcfc
#000000 #000000;
#X obj 472 298 bng 15 250 50 0 empty empty empty 17 7 0 10 #fcfcfc
#000000 #000000;
#X obj 107 66 r \$0-b1-fc;
#X obj 200 66 r \$0-b2-fc;
#X obj 283 66 r \$0-b3-fc;
#X obj 373 66 r \$0-b4-fc;
#X obj 462 66 r \$0-b5-fc;
#X obj 555 66 r \$0-b6-fc;
#X obj 648 66 r \$0-b7-fc;
#X obj 742 66 r \$0-b8-fc;
#X obj 839 66 r \$0-b9-fc;
#X obj 940 66 r \$0-b10-fc;
#X obj 981 93 r \$0-b10-Q;
#X obj 876 93 r \$0-b9-Q;
#X obj 779 93 r \$0-b8-Q;
#X obj 685 93 r \$0-b7-Q;
#X obj 592 93 r \$0-b6-Q;
#X obj 496 93 r \$0-b5-Q;
#X obj 407 93 r \$0-b4-Q;
#X obj 317 93 r \$0-b3-Q;
#X obj 230 92 r \$0-b2-Q;
#X obj 144 93 r \$0-b1-Q;
#X msg 1004 495 \; \$0-b1-gain 10 \; \$0-b2-gain 10 \; \$0-b3-gain
10 \; \$0-b4-gain 10 \; \$0-b5-gain 10 \; \$0-b6-gain 10 \; \$0-b7-gain
10 \; \$0-b8-gain 10 \; \$0-b9-gain 10 \; \$0-b10-gain 10;
#X obj 472 337 bng 15 250 50 0 empty empty empty 17 7 0 10 #fcfcfc
#000000 #000000;
#X msg 791 325 \; \$0-b1-gain 1 \; \$0-b2-gain 1 \; \$0-b3-gain 1 \;
\$0-b4-gain 1 \; \$0-b5-gain 1 \; \$0-b6-gain 1 \; \$0-b7-gain 1 \;
\$0-b8-gain 1 \; \$0-b9-gain 1 \; \$0-b10-gain 1;
#X obj 472 318 bng 15 250 50 0 empty empty empty 17 7 0 10 #fcfcfc
#000000 #000000;
#X msg 965 767 \; \$0-b1-gain 2 \; \$0-b2-gain 2 \; \$0-b3-gain 2 \;
\$0-b4-gain 2 \; \$0-b5-gain 2 \; \$0-b6-gain 2 \; \$0-b7-gain 2 \;
\$0-b8-gain 2 \; \$0-b9-gain 2 \; \$0-b10-gain 2;
#X text 246 298 center on 8ve bands;
#X text 174 270 CENTER FREQUENCIES;
#X text 445 270 QUALITY FACTORS;
#X text 489 295 high;
#X text 489 335 low;
#X text 489 316 medium;
#X obj 592 270 loadbang;
#X msg 621 724 \; \$0-b1-fc__ 31.5 \; \$0-b2-fc__ 63 \; \$0-b3-fc__
125 \; \$0-b4-fc__ 250 \; \$0-b5-fc__ 500 \; \$0-b6-fc__ 1000 \; \$0-b7-fc__
2000 \; \$0-b8-fc__ 4000 \; \$0-b9-fc__ 8000 \; \$0-b10-fc__ 16000
;
#X msg 863 766 \; \$0-b1-Q__ 10 \; \$0-b2-Q__ 10 \; \$0-b3-Q__ 10 \;
\$0-b4-Q__ 10 \; \$0-b5-Q__ 10 \; \$0-b6-Q__ 10 \; \$0-b7-Q__ 10 \;
\$0-b8-Q__ 10 \; \$0-b9-Q__ 10 \; \$0-b10-Q__ 10;
#X msg 689 324 \; \$0-b1-Q__ 1.41 \; \$0-b2-Q__ 1.41 \; \$0-b3-Q__
1.41 \; \$0-b4-Q__ 1.41 \; \$0-b5-Q__ 1.41 \; \$0-b6-Q__ 1.41 \; \$0-b7-Q__
1.41 \; \$0-b8-Q__ 1.41 \; \$0-b9-Q__ 1.41 \; \$0-b10-Q__ 1.41;
#X msg 902 494 \; \$0-b1-Q__ 100 \; \$0-b2-Q__ 100 \; \$0-b3-Q__ 100
\; \$0-b4-Q__ 100 \; \$0-b5-Q__ 100 \; \$0-b6-Q__ 100 \; \$0-b7-Q__
100 \; \$0-b8-Q__ 100 \; \$0-b9-Q__ 100 \; \$0-b10-Q__ 100;
#X obj -80 1019 s \$0-b1-fc;
#X obj -72 1046 s \$0-b1-Q;
#X obj -28 1069 s \$0-b2-fc;
#X obj -25 1092 s \$0-b2-Q;
#X obj 7 1045 s \$0-b3-Q;
#X obj 3 1020 s \$0-b3-fc;
#X obj 50 1069 s \$0-b4-fc;
#X obj 50 1091 s \$0-b4-Q;
#X obj 83 1020 s \$0-b5-fc;
#X obj 78 1046 s \$0-b5-Q;
#X obj 130 1069 s \$0-b6-fc;
#X obj 125 1092 s \$0-b6-Q;
#X obj 159 1021 s \$0-b7-fc;
#X obj 149 1043 s \$0-b7-Q;
#X obj 207 1068 s \$0-b8-fc;
#X obj 195 1090 s \$0-b8-Q;
#X obj 238 1021 s \$0-b9-fc;
#X obj 218 1043 s \$0-b9-Q;
#X obj 284 1067 s \$0-b10-fc;
#X obj 265 1092 s \$0-b10-Q;
#X obj -231 801 r \$0-b1-fc__;
#X obj -225 824 r \$0-b1-Q__;
#X obj -192 758 r \$0-b2-fc__;
#X obj -179 780 r \$0-b2-Q__;
#X obj -140 799 r \$0-b3-fc__;
#X obj -137 824 r \$0-b3-Q__;
#X obj -96 757 r \$0-b4-fc__;
#X obj -92 779 r \$0-b4-Q__;
#X obj -50 800 r \$0-b5-fc__;
#X obj -51 823 r \$0-b5-Q__;
#X obj -5 757 r \$0-b6-fc__;
#X obj -7 779 r \$0-b6-Q__;
#X obj 40 801 r \$0-b7-fc__;
#X obj 32 823 r \$0-b7-Q__;
#X obj 85 756 r \$0-b8-fc__;
#X obj 79 781 r \$0-b8-Q__;
#X obj 131 802 r \$0-b9-fc__;
#X obj 116 824 r \$0-b9-Q__;
#X obj 175 755 r \$0-b10-fc__;
#X obj 163 782 r \$0-b10-Q__;
#X floatatom 226 435 5 0 0 0 - - -, f 5;
#X floatatom 226 458 5 0 0 0 - - -, f 5;
#X floatatom 265 435 5 0 0 0 - - -, f 5;
#X floatatom 265 458 5 0 0 0 - - -, f 5;
#X floatatom 304 435 5 0 0 0 - - -, f 5;
#X floatatom 304 458 5 0 0 0 - - -, f 5;
#X floatatom 343 435 5 0 0 0 - - -, f 5;
#X floatatom 343 458 5 0 0 0 - - -, f 5;
#X floatatom 382 435 5 0 0 0 - - -, f 5;
#X floatatom 382 458 5 0 0 0 - - -, f 5;
#X floatatom 421 435 5 0 0 0 - - -, f 5;
#X floatatom 421 458 5 0 0 0 - - -, f 5;
#X floatatom 460 435 5 0 0 0 - - -, f 5;
#X floatatom 460 458 5 0 0 0 - - -, f 5;
#X floatatom 499 435 5 0 0 0 - - -, f 5;
#X floatatom 500 458 5 0 0 0 - - -, f 5;
#X floatatom 538 435 5 0 0 0 - - -, f 5;
#X floatatom 539 458 5 0 0 0 - - -, f 5;
#X floatatom 577 435 5 0 0 0 - - -, f 5;
#X floatatom 578 458 5 0 0 0 - - -, f 5;
#X text 174 435 fc (Hz);
#X text 212 457 Q;
#X text 235 413 b1;
#X text 276 413 b2;
#X text 313 413 b3;
#X text 354 413 b4;
#X text 393 413 b5;
#X text 431 413 b6;
#X text 470 413 b7;
#X text 507 413 b8;
#X text 546 413 b9;
#X text 584 413 b10;
#X text 182 248 ... presets ...;
#X text 170 384 ... or change manually ...;
#X obj 229 326 bng 15 250 50 0 empty empty empty 17 7 0 10 #fcfcfc
#000000 #000000;
#X text 246 324 treble (beta...);
#X msg 1181 463 \; \$0-b1-fc__ 2000 \; \$0-b2-fc__ 2500 \; \$0-b3-fc__
3000 \; \$0-b4-fc__ 3500 \; \$0-b5-fc__ 4000 \; \$0-b6-fc__ 4500 \;
\$0-b7-fc__ 5000 \; \$0-b8-fc__ 6000 \; \$0-b9-fc__ 7000 \; \$0-b10-fc__
8000;
#X obj 230 349 bng 15 250 50 0 empty empty empty 17 7 0 10 #fcfcfc
#000000 #000000;
#X text 247 347 bass (beta...);
#X msg 1175 676 \; \$0-b1-fc__ 50 \; \$0-b2-fc__ 100 \; \$0-b3-fc__
150 \; \$0-b4-fc__ 200 \; \$0-b5-fc__ 250 \; \$0-b6-fc__ 300 \; \$0-b7-fc__
350 \; \$0-b8-fc__ 400 \; \$0-b9-fc__ 450 \; \$0-b10-fc__ 500;
#X connect 0 0 3 0;
#X connect 0 0 1 0;
#X connect 0 0 4 0;
#X connect 0 0 5 0;
#X connect 0 0 6 0;
#X connect 0 0 7 0;
#X connect 0 0 8 0;
#X connect 0 0 9 0;
#X connect 0 0 10 0;
#X connect 0 0 11 0;
#X connect 1 0 13 0;
#X connect 3 0 12 0;
#X connect 4 0 14 0;
#X connect 5 0 15 0;
#X connect 6 0 16 0;
#X connect 7 0 17 0;
#X connect 8 0 18 0;
#X connect 9 0 19 0;
#X connect 10 0 20 0;
#X connect 11 0 21 0;
#X connect 22 0 56 0;
#X connect 23 0 59 0;
#X connect 23 0 44 0;
#X connect 24 0 3 1;
#X connect 25 0 1 1;
#X connect 26 0 4 1;
#X connect 27 0 5 1;
#X connect 28 0 6 1;
#X connect 29 0 7 1;
#X connect 30 0 8 1;
#X connect 31 0 9 1;
#X connect 32 0 10 1;
#X connect 33 0 11 1;
#X connect 34 0 11 2;
#X connect 35 0 10 2;
#X connect 36 0 9 2;
#X connect 37 0 8 2;
#X connect 38 0 7 2;
#X connect 39 0 6 2;
#X connect 40 0 5 2;
#X connect 41 0 4 2;
#X connect 42 0 1 2;
#X connect 43 0 3 2;
#X connect 45 0 58 0;
#X connect 45 0 46 0;
#X connect 47 0 57 0;
#X connect 47 0 48 0;
#X connect 55 0 47 0;
#X connect 80 0 100 0;
#X connect 81 0 101 0;
#X connect 82 0 102 0;
#X connect 83 0 103 0;
#X connect 84 0 104 0;
#X connect 85 0 105 0;
#X connect 86 0 106 0;
#X connect 87 0 107 0;
#X connect 88 0 108 0;
#X connect 89 0 109 0;
#X connect 90 0 110 0;
#X connect 91 0 111 0;
#X connect 92 0 112 0;
#X connect 93 0 113 0;
#X connect 94 0 114 0;
#X connect 95 0 115 0;
#X connect 96 0 116 0;
#X connect 97 0 117 0;
#X connect 98 0 118 0;
#X connect 99 0 119 0;
#X connect 100 0 60 0;
#X connect 101 0 61 0;
#X connect 102 0 62 0;
#X connect 103 0 63 0;
#X connect 104 0 65 0;
#X connect 105 0 64 0;
#X connect 106 0 66 0;
#X connect 107 0 67 0;
#X connect 108 0 68 0;
#X connect 109 0 69 0;
#X connect 110 0 70 0;
#X connect 111 0 71 0;
#X connect 112 0 72 0;
#X connect 113 0 73 0;
#X connect 114 0 74 0;
#X connect 115 0 75 0;
#X connect 116 0 76 0;
#X connect 117 0 77 0;
#X connect 118 0 78 0;
#X connect 119 0 79 0;
#X connect 134 0 136 0;
#X connect 137 0 139 0;
#X coords 0 -1 1 1 504 284 1 162 236;
#X restore 172 80 pd filterbank;
#N canvas 6 59 1908 965 delay-lines 0;
#X obj 380 500 outlet~;
#X obj 92 132 r \$0-b1-del;
#X obj 92 161 sig~;
#X obj 221 161 sig~;
#X obj 221 132 r \$0-b2-del;
#X obj 960 -10 vsl 15 128 0 1500 0 0 empty empty empty 0 -9 0 10 #fcfcfc
#000000 #000000 2447 1;
#X obj 960 210 s \$0-b1-del;
#X obj 1001 -10 vsl 15 128 0 1500 0 0 empty empty empty 0 -9 0 10 #fcfcfc
#000000 #000000 1693 1;
#X obj 1001 185 s \$0-b2-del;
#X obj 1041 -10 vsl 15 128 0 1500 0 0 empty empty empty 0 -9 0 10 #fcfcfc
#000000 #000000 1640 1;
#X obj 1082 -10 vsl 15 128 0 1500 0 0 empty empty empty 0 -9 0 10 #fcfcfc
#000000 #000000 4887 1;
#X obj 1041 162 s \$0-b3-del;
#X obj 1082 211 s \$0-b4-del;
#X obj 1123 -10 vsl 15 128 0 1500 0 0 empty empty empty 0 -9 0 10 #fcfcfc
#000000 #000000 4333 1;
#X obj 1165 -10 vsl 15 128 0 1500 0 0 empty empty empty 0 -9 0 10 #fcfcfc
#000000 #000000 5380 1;
#X obj 1206 -10 vsl 15 128 0 1500 0 0 empty empty empty 0 -9 0 10 #fcfcfc
#000000 #000000 6427 1;
#X obj 1246 -10 vsl 15 128 0 1500 0 0 empty empty empty 0 -9 0 10 #fcfcfc
#000000 #000000 6973 1;
#X obj 1123 185 s \$0-b5-del;
#X obj 1246 185 s \$0-b8-del;
#X obj 1206 211 s \$0-b7-del;
#X obj 1165 162 s \$0-b6-del;
#X obj 1287 -9 vsl 15 128 0 1500 0 0 empty empty empty 0 -9 0 10 #fcfcfc
#000000 #000000 7820 1;
#X obj 1328 -9 vsl 15 128 0 1500 0 0 empty empty empty 0 -9 0 10 #fcfcfc
#000000 #000000 6767 1;
#X obj 1287 163 s \$0-b9-del;
#X obj 1328 212 s \$0-b10-del;
#X obj 1371 33 bng 19 250 50 0 empty empty empty 17 7 0 10 #fcfcfc
#000000 #000000;
#X text 1392 33 preset 1;
#X obj 1371 -90 loadbang;
#X text 959 -31 b1;
#X text 999 -31 b2;
#X text 1039 -30 b3;
#X text 1079 -30 b4;
#X text 1121 -30 b5;
#X text 1160 -30 b6;
#X text 1200 -30 b7;
#X text 1243 -29 b8;
#X text 1283 -29 b9;
#X text 1327 -29 b10;
#X floatatom 960 132 5 0 0 0 - - -, f 5;
#X floatatom 1001 132 5 0 0 0 - - -, f 5;
#X floatatom 1041 132 5 0 0 0 - - -, f 5;
#X floatatom 1082 132 5 0 0 0 - - -, f 5;
#X floatatom 1123 132 5 0 0 0 - - -, f 5;
#X floatatom 1165 132 5 0 0 0 - - -, f 5;
#X floatatom 1206 132 5 0 0 0 - - -, f 5;
#X floatatom 1246 132 5 0 0 0 - - -, f 5;
#X floatatom 1287 133 5 0 0 0 - - -, f 5;
#X floatatom 1328 133 5 0 0 0 - - -, f 5;
#X text 1368 132 (ms);
#X obj 92 192 vd~ \$0-buffer-b1;
#X obj 221 192 vd~ \$0-buffer-b2;
#X msg 1683 81 \; \$0-b1-del__ 50 \; \$0-b2-del__ 100 \; \$0-b3-del__
150 \; \$0-b4-del__ 200 \; \$0-b5-del__ 250 \; \$0-b6-del__ 300 \;
\$0-b7-del__ 350 \; \$0-b8-del__ 400 \; \$0-b9-del__ 450 \; \$0-b10-del__
500;
#X obj 960 -132 r \$0-b1-del__;
#X obj 1001 -157 r \$0-b2-del__;
#X obj 1328 -130 r \$0-b10-del__;
#X obj 1287 -179 r \$0-b9-del__;
#X obj 1246 -156 r \$0-b8-del__;
#X obj 1206 -131 r \$0-b7-del__;
#X obj 1165 -180 r \$0-b6-del__;
#X obj 1123 -157 r \$0-b5-del__;
#X obj 1082 -131 r \$0-b4-del__;
#X obj 1041 -180 r \$0-b3-del__;
#X msg 1482 334 \; \$0-b1-del__ 500 \; \$0-b2-del__ 450 \; \$0-b3-del__
400 \; \$0-b4-del__ 350 \; \$0-b5-del__ 300 \; \$0-b6-del__ 250 \;
\$0-b7-del__ 200 \; \$0-b8-del__ 150 \; \$0-b9-del__ 100 \; \$0-b10-del__
50;
#X obj 1371 56 bng 19 250 50 0 empty empty empty 17 7 0 10 #fcfcfc
#000000 #000000;
#X text 1392 56 preset 2;
#X msg 1679 323 \; \$0-b1-del__ 0 \; \$0-b2-del__ 0 \; \$0-b3-del__
0 \; \$0-b4-del__ 0 \; \$0-b5-del__ 0 \; \$0-b6-del__ 0 \; \$0-b7-del__
0 \; \$0-b8-del__ 0 \; \$0-b9-del__ 0 \; \$0-b10-del__ 0;
#X obj 1381 6 bng 19 250 50 0 empty empty empty 17 7 0 10 #fcfcfc #000000
#000000;
#X text 1402 6 reset;
#X obj 92 249 *~;
#X obj 110 224 r \$0-b1-gain;
#X obj 221 253 *~;
#X obj 239 228 r \$0-b2-gain;
#X obj 353 161 sig~;
#X obj 482 161 sig~;
#X obj 353 249 *~;
#X obj 482 253 *~;
#X obj 611 161 sig~;
#X obj 611 253 *~;
#X obj 93 314 sig~;
#X obj 222 314 sig~;
#X obj 93 402 *~;
#X obj 222 406 *~;
#X obj 354 314 sig~;
#X obj 483 314 sig~;
#X obj 354 402 *~;
#X obj 483 406 *~;
#X obj 612 314 sig~;
#X obj 612 406 *~;
#X obj 353 132 r \$0-b3-del;
#X obj 353 192 vd~ \$0-buffer-b3;
#X obj 371 224 r \$0-b3-gain;
#X obj 482 132 r \$0-b4-del;
#X obj 482 192 vd~ \$0-buffer-b4;
#X obj 500 228 r \$0-b4-gain;
#X obj 611 132 r \$0-b5-del;
#X obj 611 192 vd~ \$0-buffer-b5;
#X obj 629 228 r \$0-b5-gain;
#X obj 93 285 r \$0-b6-del;
#X obj 93 345 vd~ \$0-buffer-b6;
#X obj 111 377 r \$0-b6-gain;
#X obj 222 285 r \$0-b7-del;
#X obj 222 345 vd~ \$0-buffer-b7;
#X obj 240 381 r \$0-b7-gain;
#X obj 354 285 r \$0-b8-del;
#X obj 354 345 vd~ \$0-buffer-b8;
#X obj 372 377 r \$0-b8-gain;
#X obj 483 285 r \$0-b9-del;
#X obj 483 345 vd~ \$0-buffer-b9;
#X obj 501 381 r \$0-b9-gain;
#X obj 612 285 r \$0-b10-del;
#X obj 612 345 vd~ \$0-buffer-b10;
#X obj 630 381 r \$0-b10-gain;
#X msg 1120 400 \; \$0-b1-del__ 100 \; \$0-b2-del__ 200 \; \$0-b3-del__
300 \; \$0-b4-del__ 400 \; \$0-b5-del__ 500 \; \$0-b6-del__ 600 \;
\$0-b7-del__ 700 \; \$0-b8-del__ 800 \; \$0-b9-del__ 900 \; \$0-b10-del__
1000;
#X obj 1371 80 bng 19 250 50 0 empty empty empty 17 7 0 10 #fcfcfc
#000000 #000000;
#X text 1392 80 preset 3;
#X connect 1 0 2 0;
#X connect 2 0 49 0;
#X connect 3 0 50 0;
#X connect 4 0 3 0;
#X connect 5 0 6 0;
#X connect 5 0 38 0;
#X connect 7 0 8 0;
#X connect 7 0 39 0;
#X connect 9 0 11 0;
#X connect 9 0 40 0;
#X connect 10 0 12 0;
#X connect 10 0 41 0;
#X connect 13 0 17 0;
#X connect 13 0 42 0;
#X connect 14 0 20 0;
#X connect 14 0 43 0;
#X connect 15 0 19 0;
#X connect 15 0 44 0;
#X connect 16 0 18 0;
#X connect 16 0 45 0;
#X connect 21 0 23 0;
#X connect 21 0 46 0;
#X connect 22 0 24 0;
#X connect 22 0 47 0;
#X connect 25 0 51 0;
#X connect 27 0 25 0;
#X connect 49 0 68 0;
#X connect 50 0 70 0;
#X connect 52 0 5 0;
#X connect 53 0 7 0;
#X connect 54 0 22 0;
#X connect 55 0 21 0;
#X connect 56 0 16 0;
#X connect 57 0 15 0;
#X connect 58 0 14 0;
#X connect 59 0 13 0;
#X connect 60 0 10 0;
#X connect 61 0 9 0;
#X connect 63 0 62 0;
#X connect 66 0 65 0;
#X connect 68 0 0 0;
#X connect 69 0 68 1;
#X connect 70 0 0 0;
#X connect 71 0 70 1;
#X connect 72 0 89 0;
#X connect 73 0 92 0;
#X connect 74 0 0 0;
#X connect 75 0 0 0;
#X connect 76 0 95 0;
#X connect 77 0 0 0;
#X connect 78 0 98 0;
#X connect 79 0 101 0;
#X connect 80 0 0 0;
#X connect 81 0 0 0;
#X connect 82 0 104 0;
#X connect 83 0 107 0;
#X connect 84 0 0 0;
#X connect 85 0 0 0;
#X connect 86 0 110 0;
#X connect 87 0 0 0;
#X connect 88 0 72 0;
#X connect 89 0 74 0;
#X connect 90 0 74 1;
#X connect 91 0 73 0;
#X connect 92 0 75 0;
#X connect 93 0 75 1;
#X connect 94 0 76 0;
#X connect 95 0 77 0;
#X connect 96 0 77 1;
#X connect 97 0 78 0;
#X connect 98 0 80 0;
#X connect 99 0 80 1;
#X connect 100 0 79 0;
#X connect 101 0 81 0;
#X connect 102 0 81 1;
#X connect 103 0 82 0;
#X connect 104 0 84 0;
#X connect 105 0 84 1;
#X connect 106 0 83 0;
#X connect 107 0 85 0;
#X connect 108 0 85 1;
#X connect 109 0 86 0;
#X connect 110 0 87 0;
#X connect 111 0 87 1;
#X connect 113 0 112 0;
#X coords 0 -1 1 1 548 210 1 922 -50;
#X restore 240 410 pd delay-lines;
#X connect 1 0 2 0;
#X connect 3 0 0 0;
#X connect 3 0 0 1;
